<?xml version="1.0" standalone="no"?><!DOCTYPE svg PUBLIC "-//W3C//DTD SVG 1.1//EN" "http://www.w3.org/Graphics/SVG/1.1/DTD/svg11.dtd"><svg t="1618814201074" class="icon" viewBox="0 0 1024 1024" version="1.1" xmlns="http://www.w3.org/2000/svg" p-id="2342" xmlns:xlink="http://www.w3.org/1999/xlink" width="64" height="64"><defs><style type="text/css"></style></defs><path d="M344.53333332 71.46666665H207.99999999c-75.09333333 0-136.53333333 61.44-136.53333334 136.53333334v136.53333333c0 75.09333333 61.44 136.53333333 136.53333334 136.53333333h136.53333333c75.09333333 0 136.53333333-61.44 136.53333333-136.53333333V207.99999999c0-75.09333333-61.44-136.53333333-136.53333333-136.53333334z m477.86666667 0H685.86666665c-75.09333333 0-136.53333333 61.44-136.53333333 136.53333334v136.53333333c0 75.09333333 61.44 136.53333333 136.53333333 136.53333333h136.53333334c75.09333333 0 136.53333333-61.44 136.53333333-136.53333333V207.99999999c0-75.09333333-61.44-136.53333333-136.53333333-136.53333334zM344.53333332 549.33333332H207.99999999c-75.09333333 0-136.53333333 61.44-136.53333334 136.53333333v136.53333334c0 75.09333333 61.44 136.53333333 136.53333334 136.53333333h136.53333333c75.09333333 0 136.53333333-61.44 136.53333333-136.53333333V685.86666665c0-75.09333333-61.44-136.53333333-136.53333333-136.53333333z m477.86666667 0H685.86666665c-75.09333333 0-136.53333333 61.44-136.53333333 136.53333333v136.53333334c0 75.09333333 61.44 136.53333333 136.53333333 136.53333333h136.53333334c75.09333333 0 136.53333333-61.44 136.53333333-136.53333333V685.86666665c0-75.09333333-61.44-136.53333333-136.53333333-136.53333333z" p-id="2343" fill="#8a8a8a"></path></svg>